<svg version="1" xmlns="http://www.w3.org/2000/svg" width="933.333" height="933.333" viewBox="0 0 700.000000 700.000000"><path d="M396.3 124.2l-73.2 73.3 24.1 24.3 24.1 24.4 49.9-49.9 49.8-49.8 68.5 68.5 68.5 68.5V478H333v-76.5l-33.8-33.8c-18.5-18.5-34-33.7-34.5-33.7-.4 0-.7 47.9-.7 106.5V547h412V255.5L573.7 153.2C517.5 97 471 51 470.5 51c-.6 0-33.9 33-74.2 73.2z"/><path d="M126.7 255.8L24 358.5V650h412v-68H93V386.5l68.5-68.5 68.5-68.5 68.5 68.5 68.5 68.5V444h69v-85.5L333.2 255.7C276.7 199.2 230.3 153 230 153c-.3 0-46.7 46.2-103.3 102.8z"/></svg>